HIERARCHY
ROOT mug3
{
	OFFSET 0.000000 0.000000 0.000000
	CHANNELS 6 Xposition Yposition Zposition Yrotation Xrotation Zrotation
	End Site
	{
		OFFSET 0.000000 0.000000 0.000000
	}
}
MOTION
Frames: 121
Frame Time: 0.008333334
2.168504 3.556294 2.915592 141.943600 5.386228 1.527765 
2.166224 3.556465 2.919667 140.611900 5.381543 1.451827 
2.163946 3.556635 2.923742 139.279600 5.375100 1.375988 
2.161667 3.556805 2.927816 137.947200 5.366904 1.300311 
2.159388 3.556975 2.931891 136.615000 5.356956 1.224859 
2.157109 3.557145 2.935966 135.283400 5.345272 1.149689 
2.154750 3.557244 2.939870 134.094000 5.249146 1.135664 
2.153345 3.557626 2.943704 132.957400 5.324103 1.088944 
2.151428 3.557932 2.947886 131.890800 5.222065 1.024419 
2.149749 3.558298 2.951757 130.904500 5.256031 0.856806 
2.148308 3.558604 2.955207 129.926700 5.208598 0.853423 
2.146047 3.559353 2.958158 128.887300 5.495832 0.686591 
2.145590 3.558975 2.961199 128.272100 5.177061 0.812885 
2.143693 3.559263 2.963691 127.401800 5.329915 0.695870 
2.142903 3.559187 2.965826 126.699000 5.227369 0.674708 
2.141345 3.559414 2.967784 126.081800 5.309423 0.615088 
2.140808 3.559643 2.969702 125.347900 5.328528 0.593843 
2.140047 3.560027 2.971332 124.705700 5.326189 0.477989 
2.139628 3.559684 2.972854 124.202200 5.322890 0.568125 
2.138602 3.559896 2.974593 123.625000 5.335232 0.505355 
2.138552 3.560209 2.975864 123.232000 5.284177 0.465751 
2.138320 3.560153 2.976942 122.866800 5.281501 0.463025 
2.138288 3.559926 2.977622 122.574600 5.218468 0.466094 
2.138080 3.560137 2.978259 122.277100 5.226163 0.450006 
2.137995 3.560237 2.978641 122.139800 5.197787 0.470520 
2.138266 3.560048 2.978462 122.081700 5.214648 0.434445 
2.138338 3.560066 2.978239 122.075000 5.231142 0.431633 
2.138402 3.560004 2.977809 122.102600 5.229048 0.458745 
2.138271 3.559887 2.976224 122.252700 5.266296 0.414645 
2.138496 3.559770 2.974195 122.518900 5.267279 0.418041 
2.138551 3.559758 2.971868 122.917300 5.298209 0.428305 
2.139179 3.559407 2.968403 123.597700 5.336801 0.522547 
2.139750 3.559647 2.964961 124.309800 5.293304 0.467909 
2.140754 3.559406 2.960706 125.222700 5.303610 0.505414 
2.140822 3.559129 2.955931 126.114600 5.394103 0.582780 
2.142661 3.558220 2.950973 127.309600 5.142462 0.734034 
2.141773 3.558612 2.944903 128.234600 5.380033 0.699561 
2.142145 3.558685 2.938040 129.463000 5.392775 0.766805 
2.142714 3.558190 2.930652 130.775500 5.438738 0.761226 
2.142952 3.557398 2.923581 132.156600 5.323385 0.970362 
2.143636 3.556866 2.916039 133.742600 5.317922 1.076843 
2.144014 3.556757 2.908667 135.432300 5.362055 1.244632 
2.145193 3.556597 2.900719 137.265300 5.353989 1.217374 
2.144946 3.556010 2.894134 139.079000 5.321430 1.527421 
2.145639 3.555809 2.886596 140.939100 5.389089 1.513924 
2.146006 3.555680 2.880229 142.864100 5.456131 1.594306 
2.146862 3.555333 2.873895 144.857700 5.347531 1.728088 
2.147871 3.554885 2.868659 146.917100 5.371082 1.839696 
2.149540 3.554621 2.863702 148.991200 5.296148 1.987884 
2.151042 3.554150 2.859181 151.091500 5.252144 2.006608 
2.153078 3.554080 2.855518 153.223200 5.292505 2.166858 
2.154057 3.554190 2.851870 155.212300 5.328854 2.193829 
2.155956 3.553734 2.848460 157.286600 5.252660 2.364315 
2.157907 3.553592 2.844869 159.261100 5.101020 2.555003 
2.160064 3.553326 2.842700 161.302400 5.024931 2.677814 
2.162163 3.553206 2.840112 163.216700 5.166240 2.707931 
2.165066 3.553010 2.839719 165.337300 5.080156 2.752194 
2.168682 3.552832 2.838675 167.348200 4.979562 2.957107 
2.171230 3.552414 2.837129 169.327500 4.973628 3.005323 
2.173646 3.552177 2.835372 171.203200 4.852195 3.062943 
2.175057 3.552253 2.833337 172.938200 4.808005 3.138439 
2.176215 3.552055 2.830793 174.730600 4.704667 3.297992 
2.176167 3.551902 2.827802 176.248000 4.647604 3.404735 
2.174546 3.551755 2.824281 177.822000 4.600853 3.465116 
2.171990 3.551829 2.820911 179.363300 4.555228 3.481180 
2.168741 3.551941 2.817462 -179.057100 4.560834 3.529104 
2.165247 3.551999 2.814111 -177.569900 4.498528 3.620657 
2.161472 3.552316 2.810933 -176.097000 4.442898 3.717963 
2.158444 3.551796 2.808804 -174.477900 4.288218 3.822658 
2.155567 3.551544 2.806486 -173.034300 4.207442 3.786802 
2.152796 3.551653 2.805005 -171.519300 4.211779 3.834471 
2.149666 3.551416 2.803043 -170.055300 4.139344 3.920787 
2.147165 3.551613 2.801241 -168.596300 4.102350 3.931718 
2.143780 3.551937 2.799324 -167.229800 4.149256 3.900976 
2.139387 3.551905 2.796998 -165.847900 3.987458 4.064130 
2.135028 3.551917 2.794897 -164.524400 4.020606 4.067643 
2.130064 3.551711 2.792985 -163.195200 3.900592 4.154706 
2.125264 3.552205 2.790561 -161.916800 3.906510 4.163136 
2.120109 3.552603 2.787970 -160.506000 3.834408 4.292807 
2.114794 3.552328 2.785775 -159.200700 3.720686 4.330481 
2.108890 3.552568 2.783890 -157.945200 3.658059 4.456056 
2.102098 3.552812 2.781702 -156.673500 3.511267 4.530122 
2.094948 3.552947 2.780293 -155.375000 3.551566 4.473387 
2.087029 3.552864 2.779051 -154.073000 3.500596 4.462962 
2.078568 3.553669 2.778059 -152.680300 3.479103 4.520040 
2.070000 3.553433 2.777166 -151.315200 3.378457 4.468930 
2.060467 3.553947 2.776831 -149.914700 3.286815 4.525184 
2.051476 3.553928 2.776042 -148.596400 3.195271 4.439064 
2.043316 3.554394 2.775820 -147.242300 3.155017 4.500615 
2.035218 3.554674 2.775577 -145.911300 3.147753 4.467331 
2.027198 3.554959 2.775176 -144.562200 2.987592 4.601860 
2.020761 3.555072 2.774904 -143.214400 3.010167 4.538347 
2.013963 3.554895 2.774816 -141.835000 3.031173 4.442147 
2.007093 3.555870 2.775045 -140.458500 3.107877 4.394673 
2.000014 3.556041 2.774414 -139.141300 3.004211 4.459036 
1.993120 3.556110 2.774196 -137.883000 2.928670 4.494931 
1.987267 3.556029 2.774013 -136.633600 2.768528 4.497236 
1.981624 3.556259 2.773442 -135.421800 2.805750 4.489830 
1.976341 3.556495 2.772403 -134.325900 2.696839 4.521163 
1.971624 3.556419 2.771273 -133.319200 2.692592 4.530986 
1.966548 3.556585 2.769658 -132.337400 2.597539 4.517110 
1.962177 3.557030 2.768782 -131.424800 2.573959 4.497127 
1.958741 3.556998 2.767536 -130.426400 2.523364 4.568067 
1.955205 3.557411 2.766393 -129.530300 2.423777 4.531538 
1.952617 3.556797 2.765466 -128.682800 2.379535 4.565180 
1.949682 3.556770 2.764681 -127.950400 2.396826 4.432421 
1.947268 3.557020 2.763921 -127.251800 2.278865 4.508084 
1.944826 3.557553 2.763372 -126.691800 2.332200 4.440166 
1.941769 3.557852 2.762604 -126.195700 2.348175 4.463977 
1.940059 3.557617 2.762473 -125.732800 2.397164 4.487545 
1.937785 3.557850 2.762033 -125.404900 2.302547 4.499804 
1.936132 3.558131 2.761223 -125.107500 2.464298 4.449334 
1.934895 3.557750 2.761591 -124.918400 2.326441 4.466237 
1.934118 3.557811 2.761467 -124.736800 2.230108 4.494978 
1.933273 3.557575 2.761724 -124.600200 2.186353 4.505174 
1.932974 3.557738 2.761544 -124.541900 2.189225 4.484056 
1.933141 3.557679 2.761444 -124.540400 2.200767 4.499397 
1.933131 3.557688 2.761267 -124.547500 2.201699 4.516605 
1.932886 3.557758 2.760754 -124.587500 2.253264 4.535085 
1.932924 3.557901 2.760435 -124.551200 2.304271 4.512484 
1.932842 3.557941 2.760041 -124.525800 2.300561 4.473071 
